<?xml version="1.0" standalone="no"?>
<!DOCTYPE svg PUBLIC "-//W3C//DTD SVG 20010904//EN"
 "http://www.w3.org/TR/2001/REC-SVG-20010904/DTD/svg10.dtd">
<svg version="1.0" xmlns="http://www.w3.org/2000/svg"
 width="398.000000pt" height="318.000000pt" viewBox="0 0 398.000000 318.000000"
 preserveAspectRatio="xMidYMid meet">

<g transform="translate(0.000000,318.000000) scale(0.100000,-0.100000)"
fill="#000000" stroke="none">
<path d="M1971 3158 c-7 -12 -25 -42 -39 -67 -14 -25 -36 -60 -49 -77 -12 -17
-23 -33 -23 -36 0 -7 -68 -121 -115 -193 -18 -27 -36 -60 -39 -72 -4 -13 -11
-23 -16 -23 -4 0 -13 -13 -18 -29 -5 -15 -23 -48 -38 -72 -16 -24 -28 -47 -29
-51 0 -4 -6 -13 -12 -19 -7 -7 -13 -17 -13 -22 0 -5 -13 -29 -30 -54 -16 -24
-30 -48 -30 -54 0 -5 -4 -9 -10 -9 -5 0 -10 -6 -10 -13 0 -7 -11 -29 -25 -48
-24 -32 -171 -270 -224 -363 -13 -22 -39 -64 -57 -93 -19 -28 -34 -54 -34 -58
0 -3 -13 -25 -29 -48 -16 -23 -38 -58 -48 -77 -11 -19 -34 -57 -50 -85 -120
-200 -141 -236 -191 -325 -18 -33 -191 -318 -212 -350 -5 -8 -19 -31 -30 -50
-38 -65 -75 -127 -195 -329 -66 -110 -130 -218 -142 -238 -12 -21 -27 -45 -33
-53 -17 -24 -110 -183 -110 -187 0 -3 -10 -19 -22 -36 l-22 -32 24 20 c19 17
246 276 456 519 33 39 129 150 213 246 247 282 253 290 357 410 166 193 285
330 369 425 183 204 458 530 485 572 l29 45 14 -24 c9 -13 154 -255 323 -538
169 -283 397 -666 507 -850 110 -184 203 -339 208 -344 11 -12 -45 134 -809
2109 -146 378 -174 452 -202 533 -18 50 -27 62 -44 62 -12 0 -27 -10 -35 -22z"/>
<path d="M1966 1390 l-39 -100 -161 0 -162 0 -49 -45 -50 -44 188 -1 189 0 -7
-42 c-13 -84 -2 -78 -146 -78 l-130 0 -45 -37 c-24 -21 -44 -41 -44 -45 0 -4
80 -8 179 -8 l178 0 6 -37 c3 -21 9 -48 13 -60 l6 -23 -147 0 -148 0 -46 -37
-46 -38 215 -5 215 -5 29 -83 c16 -46 34 -81 40 -80 6 2 29 41 51 86 l39 82
144 0 145 0 41 37 c22 20 43 40 44 45 2 4 -74 8 -168 8 -160 0 -172 1 -165 18
7 17 8 22 20 75 l5 27 113 0 112 1 45 39 45 39 -160 1 -160 0 -16 60 -16 60
127 0 127 0 48 43 49 42 -194 5 -194 5 -7 40 c-4 22 -10 56 -13 76 -6 33 -37
79 -54 79 -4 0 -24 -45 -46 -100z m64 74 c0 -4 -15 -46 -34 -93 -77 -194 -81
-321 -19 -516 35 -108 47 -197 29 -203 -5 -2 -22 30 -36 70 -15 40 -40 100
-55 133 -23 48 -29 78 -33 154 -5 112 7 179 55 281 19 41 44 99 55 128 10 28
24 52 29 52 5 0 9 -3 9 -6z m24 -46 c3 -13 6 -36 6 -51 0 -16 18 -82 40 -147
34 -100 40 -132 40 -200 0 -75 -4 -91 -52 -208 l-52 -127 -12 53 c-7 30 -22
81 -34 113 -13 33 -21 61 -19 63 2 1 25 13 51 25 36 17 50 31 62 62 32 80 -18
159 -101 159 -20 0 -33 5 -33 13 1 40 78 267 91 267 4 0 9 -10 13 -22z m-3
-297 c23 -24 29 -38 29 -73 0 -52 -21 -85 -66 -104 -45 -19 -54 -18 -54 9 1
14 13 29 33 42 54 34 42 105 -18 105 -28 0 -38 12 -29 34 11 28 71 20 105 -13z
m-43 -43 c22 -22 14 -57 -18 -73 -16 -8 -31 -15 -35 -15 -3 0 -5 23 -5 50 0
46 2 50 23 50 13 0 28 -5 35 -12z"/>
</g>
</svg>
